<svg width="16" height="16" viewBox="0 0 16 16" fill="none" xmlns="http://www.w3.org/2000/svg">
<g id="location_on_white_24dp 1" clip-path="url(#clip0_49_2727)">
<path id="Vector" d="M7.93793 1.75635C5.43404 1.75635 3.40894 3.78145 3.40894 6.28534C3.40894 9.68208 7.93793 14.6963 7.93793 14.6963C7.93793 14.6963 12.4669 9.68208 12.4669 6.28534C12.4669 3.78145 10.4418 1.75635 7.93793 1.75635ZM4.70293 6.28534C4.70293 4.49962 6.15221 3.05035 7.93793 3.05035C9.72364 3.05035 11.1729 4.49962 11.1729 6.28534C11.1729 8.1487 9.30957 10.9373 7.93793 12.6777C6.59217 10.9502 4.70293 8.12929 4.70293 6.28534Z" fill="#898989"/>
<path id="Vector_2" d="M7.9379 7.90296C8.83122 7.90296 9.5554 7.17878 9.5554 6.28547C9.5554 5.39215 8.83122 4.66797 7.9379 4.66797C7.04458 4.66797 6.3204 5.39215 6.3204 6.28547C6.3204 7.17878 7.04458 7.90296 7.9379 7.90296Z" fill="#898989"/>
</g>
<defs>
<clipPath id="clip0_49_2727">
<rect width="15.528" height="15.528" fill="white" transform="translate(0.17395 0.462402)"/>
</clipPath>
</defs>
</svg>
