<svg width="28" height="28" viewBox="0 0 28 28" fill="none" xmlns="http://www.w3.org/2000/svg">
<g id="mdi:weather-time">
<path id="Vector" d="M17.5 15.1667H19.25V18.4567L22.0966 20.1017L21.2216 21.6184L17.5 19.4717V15.1667ZM21.1516 10.885C20.1016 7.94504 17.3016 5.83337 14 5.83337C10.85 5.83337 8.16663 7.75837 6.99996 10.5C3.77996 10.5 1.16663 13.1134 1.16663 16.3334C1.16663 19.5534 3.77996 22.1667 6.99996 22.1667H11.2933C12.6116 24.92 15.4116 26.8334 18.6666 26.8334C23.1816 26.8334 26.8333 23.1817 26.8333 18.6667C26.8333 15.0267 24.4533 11.9467 21.1516 10.885ZM6.99996 19.8334C5.06329 19.8334 3.49996 18.27 3.49996 16.3334C3.49996 14.3967 5.06329 12.8334 6.99996 12.8334C7.43163 12.8334 7.85163 12.915 8.23663 13.055C8.4618 11.6892 9.16495 10.4479 10.2206 9.5525C11.2763 8.65712 12.6157 8.16597 14 8.16671C15.9016 8.16671 17.5816 9.08837 18.6666 10.5C14.14 10.5 10.5 14.1634 10.5 18.6667C10.5 19.0634 10.535 19.4484 10.5933 19.8334H6.99996ZM18.6666 24.5C15.4466 24.5 12.8333 21.8867 12.8333 18.6667C12.8333 15.4467 15.4466 12.8334 18.6666 12.8334C21.8866 12.8334 24.5 15.4467 24.5 18.6667C24.5 21.8867 21.8866 24.5 18.6666 24.5Z" fill="#0043FF"/>
</g>
</svg>
