<svg width="17" height="19" viewBox="0 0 17 19" fill="none" xmlns="http://www.w3.org/2000/svg">
<g id="Group 8864" opacity="0.8">
<path id="Vector" d="M2.26346 2.28135H2.33321L2.3573 2.2159C2.5654 1.65064 2.95158 1.16041 3.46342 0.813296C3.9753 0.466147 4.58741 0.279443 5.21535 0.279443C5.84329 0.279443 6.45539 0.466147 6.96727 0.813296C7.47911 1.16041 7.8653 1.65064 8.07339 2.2159L8.09749 2.28135H8.16723H15.646C15.8975 2.28135 16.1378 2.37713 16.3144 2.54636C16.4908 2.71545 16.5891 2.94386 16.5891 3.18108C16.5891 3.4183 16.4908 3.6467 16.3144 3.8158C16.1378 3.98502 15.8975 4.0808 15.646 4.0808H8.16723H8.09749L8.07339 4.14626C7.8653 4.71151 7.47911 5.20174 6.96727 5.54886C6.45539 5.89601 5.84329 6.08271 5.21535 6.08271C4.58741 6.08271 3.9753 5.89601 3.46342 5.54886C2.95158 5.20174 2.5654 4.71151 2.3573 4.14626L2.33321 4.0808H2.26346H1.04307C0.791615 4.0808 0.551269 3.98502 0.374703 3.8158C0.198282 3.6467 0.1 3.4183 0.1 3.18108C0.1 2.94386 0.198282 2.71545 0.374703 2.54636C0.551269 2.37713 0.791615 2.28135 1.04307 2.28135H2.26346ZM8.52188 8.27972H8.59162L8.61572 8.21426C8.82381 7.64901 9.21 7.15878 9.72183 6.81166C10.2337 6.46451 10.8458 6.27781 11.4738 6.27781C12.1017 6.27781 12.7138 6.46451 13.2257 6.81166C13.7375 7.15878 14.1237 7.64901 14.3318 8.21426L14.3559 8.27972H14.4256H15.646C15.8975 8.27972 16.1378 8.37549 16.3144 8.54472C16.4908 8.71381 16.5891 8.94222 16.5891 9.17944C16.5891 9.41666 16.4908 9.64507 16.3144 9.81416C16.1378 9.98339 15.8975 10.0792 15.646 10.0792H14.4256H14.3559L14.3318 10.1446C14.1237 10.7099 13.7375 11.2001 13.2257 11.5472C12.7138 11.8944 12.1017 12.0811 11.4738 12.0811C10.8458 12.0811 10.2337 11.8944 9.72183 11.5472C9.21 11.2001 8.82381 10.7099 8.61572 10.1446L8.59162 10.0792H8.52188H1.04307C0.791615 10.0792 0.551269 9.98339 0.374703 9.81416C0.198281 9.64507 0.1 9.41666 0.1 9.17944C0.1 8.94222 0.198282 8.71381 0.374703 8.54472C0.551269 8.37549 0.791615 8.27972 1.04307 8.27972H8.52188ZM2.26346 14.2781H2.33321L2.3573 14.2126C2.5654 13.6474 2.95158 13.1571 3.46342 12.81C3.9753 12.4629 4.58741 12.2762 5.21535 12.2762C5.84329 12.2762 6.45539 12.4629 6.96727 12.81C7.47911 13.1571 7.8653 13.6474 8.07339 14.2126L8.09749 14.2781H8.16723H15.646C15.8975 14.2781 16.1378 14.3739 16.3144 14.5431C16.4908 14.7122 16.5891 14.9406 16.5891 15.1778C16.5891 15.415 16.4908 15.6434 16.3144 15.8125C16.1378 15.9818 15.8975 16.0775 15.646 16.0775H8.16723H8.09749L8.07339 16.143C7.8653 16.7082 7.47911 17.1985 6.96728 17.5456C6.45539 17.8927 5.84328 18.0794 5.21535 18.0794C4.58741 18.0794 3.9753 17.8927 3.46342 17.5456C2.95158 17.1985 2.5654 16.7082 2.3573 16.143L2.33321 16.0775H2.26346H1.04307C0.791614 16.0775 0.551268 15.9818 0.374703 15.8125C0.198282 15.6434 0.1 15.415 0.1 15.1778C0.1 14.9406 0.198282 14.7122 0.374703 14.5431C0.551269 14.3739 0.791615 14.2781 1.04307 14.2781H2.26346ZM5.21535 2.08135C4.91352 2.08135 4.62325 2.19623 4.40859 2.40197C4.19378 2.60785 4.07228 2.88801 4.07228 3.18108C4.07228 3.47414 4.19378 3.75431 4.40859 3.96019C4.62325 4.16593 4.91352 4.2808 5.21535 4.2808C5.51717 4.2808 5.80744 4.16593 6.0221 3.96019C6.23691 3.75431 6.35842 3.47414 6.35842 3.18108C6.35842 2.88801 6.23691 2.60785 6.0221 2.40197C5.80744 2.19623 5.51717 2.08135 5.21535 2.08135ZM11.4738 8.07972C11.1719 8.07972 10.8817 8.19459 10.667 8.40033C10.4522 8.60621 10.3307 8.88638 10.3307 9.17944C10.3307 9.47251 10.4522 9.75267 10.667 9.95855C10.8817 10.1643 11.1719 10.2792 11.4738 10.2792C11.7756 10.2792 12.0659 10.1643 12.2805 9.95855C12.4953 9.75267 12.6168 9.47251 12.6168 9.17944C12.6168 8.88638 12.4953 8.60621 12.2805 8.40033C12.0659 8.19459 11.7756 8.07972 11.4738 8.07972ZM5.21535 14.0781C4.91352 14.0781 4.62325 14.193 4.40859 14.3987C4.19378 14.6046 4.07228 14.8847 4.07228 15.1778C4.07228 15.4709 4.19378 15.751 4.40859 15.9569C4.62325 16.1627 4.91352 16.2775 5.21535 16.2775C5.51717 16.2775 5.80744 16.1627 6.0221 15.9569C6.23691 15.751 6.35842 15.4709 6.35842 15.1778C6.35842 14.8847 6.23691 14.6046 6.0221 14.3987C5.80744 14.193 5.51717 14.0781 5.21535 14.0781Z" fill="#252C58" stroke="white" stroke-width="0.2"/>
</g>
</svg>
