<svg width="24" height="24" viewBox="0 0 24 24" fill="none" xmlns="http://www.w3.org/2000/svg">
<g id="material-symbols:bedtime-outline">
<path id="Vector" d="M13.1 23C11.7 23 10.3877 22.7333 9.163 22.2C7.93833 21.6667 6.87167 20.9457 5.963 20.037C5.05433 19.129 4.33333 18.0623 3.8 16.837C3.26667 15.6117 3 14.2993 3 12.9C3 10.4667 3.775 8.32067 5.325 6.462C6.875 4.60333 8.85 3.44933 11.25 3C10.95 4.65 11.0417 6.26267 11.525 7.838C12.0083 9.41333 12.8417 10.7923 14.025 11.975C15.2083 13.1583 16.5877 13.9917 18.163 14.475C19.7383 14.9583 21.3507 15.05 23 14.75C22.5667 17.15 21.4167 19.125 19.55 20.675C17.6833 22.225 15.5333 23 13.1 23ZM13.1 21C14.5667 21 15.925 20.6333 17.175 19.9C18.425 19.1667 19.4083 18.1583 20.125 16.875C18.6917 16.7417 17.3333 16.379 16.05 15.787C14.7667 15.195 13.6167 14.391 12.6 13.375C11.5833 12.3583 10.775 11.2083 10.175 9.925C9.575 8.64167 9.21667 7.28333 9.1 5.85C7.81667 6.56667 6.81267 7.55433 6.088 8.813C5.36333 10.0717 5.00067 11.434 5 12.9C5 15.15 5.78767 17.0627 7.363 18.638C8.93833 20.2133 10.8507 21.0007 13.1 21Z" fill="#0043FF"/>
</g>
</svg>
