<svg width="20" height="20" viewBox="0 0 20 20" fill="none" xmlns="http://www.w3.org/2000/svg">
<g id="pajamas:time-out" clip-path="url(#clip0_49_4538)">
<path id="Vector" fill-rule="evenodd" clip-rule="evenodd" d="M7.78624 0.248712C9.16405 -0.0640542 10.5925 -0.0813071 11.9775 0.19809C13.3624 0.477486 14.6725 1.04719 15.8213 1.86966C16.9701 2.69214 17.9315 3.74871 18.6423 4.96975C19.3531 6.1908 19.7971 7.54861 19.945 8.95371C19.971 9.20103 19.8977 9.44855 19.7413 9.64183C19.5848 9.83511 19.3579 9.95831 19.1106 9.98434C18.8633 10.0104 18.6158 9.93707 18.4225 9.7806C18.2292 9.62412 18.106 9.39728 18.08 9.14996C17.9193 7.62324 17.3294 6.17328 16.3785 4.96804C15.4277 3.76279 14.1549 2.85158 12.7075 2.33995C11.2601 1.82833 9.69738 1.73721 8.20034 2.07717C6.7033 2.41714 5.33321 3.17426 4.24876 4.26084C3.1643 5.34742 2.40987 6.719 2.07285 8.2167C1.73582 9.7144 1.83 11.2769 2.34446 12.7233C2.85893 14.1697 3.77263 15.4407 4.97974 16.3892C6.18685 17.3377 7.63796 17.9248 9.16499 18.0825C9.28835 18.094 9.40821 18.1298 9.51763 18.1879C9.62706 18.246 9.72388 18.3252 9.8025 18.421C9.88113 18.5167 9.93999 18.6271 9.97569 18.7458C10.0114 18.8644 10.0232 18.9889 10.0105 19.1122C9.99779 19.2354 9.96077 19.3549 9.90159 19.4637C9.8424 19.5726 9.76223 19.6686 9.66571 19.7463C9.56919 19.824 9.45822 19.8817 9.33924 19.9163C9.22025 19.9508 9.0956 19.9614 8.97249 19.9475C6.61364 19.7048 4.41779 18.6317 2.77688 16.9198C1.13596 15.208 0.156782 12.9687 0.0141001 10.6017C-0.128581 8.23466 0.574525 5.89397 1.99792 3.99739C3.42132 2.1008 5.47237 0.771755 7.78499 0.247462L7.78624 0.248712ZM9.99999 3.74996C10.2486 3.74996 10.4871 3.84873 10.6629 4.02455C10.8387 4.20036 10.9375 4.43882 10.9375 4.68746V11.25H5.93749C5.68885 11.25 5.4504 11.1512 5.27458 10.9754C5.09877 10.7996 4.99999 10.5611 4.99999 10.3125C4.99999 10.0638 5.09877 9.82536 5.27458 9.64955C5.4504 9.47373 5.68885 9.37496 5.93749 9.37496H9.06249V4.68746C9.06249 4.43882 9.16127 4.20036 9.33708 4.02455C9.5129 3.84873 9.75135 3.74996 9.99999 3.74996ZM12.775 12.775C12.9508 12.5994 13.1891 12.5008 13.4375 12.5008C13.6859 12.5008 13.9242 12.5994 14.1 12.775L16.25 14.925L18.4 12.775C18.4858 12.6829 18.5893 12.609 18.7043 12.5577C18.8193 12.5065 18.9435 12.4789 19.0693 12.4767C19.1952 12.4745 19.3203 12.4977 19.437 12.5448C19.5537 12.592 19.6598 12.6621 19.7488 12.7512C19.8378 12.8402 19.908 12.9462 19.9551 13.063C20.0023 13.1797 20.0255 13.3047 20.0232 13.4306C20.021 13.5565 19.9935 13.6806 19.9422 13.7956C19.891 13.9106 19.8171 14.0141 19.725 14.1L17.575 16.25L19.725 18.4C19.8171 18.4858 19.891 18.5893 19.9422 18.7043C19.9935 18.8193 20.021 18.9434 20.0232 19.0693C20.0255 19.1952 20.0023 19.3202 19.9551 19.437C19.908 19.5537 19.8378 19.6597 19.7488 19.7488C19.6598 19.8378 19.5537 19.908 19.437 19.9551C19.3203 20.0023 19.1952 20.0254 19.0693 20.0232C18.9435 20.021 18.8193 19.9934 18.7043 19.9422C18.5893 19.8909 18.4858 19.8171 18.4 19.725L16.25 17.575L14.1 19.725C14.0142 19.8171 13.9107 19.8909 13.7957 19.9422C13.6807 19.9934 13.5565 20.021 13.4306 20.0232C13.3048 20.0254 13.1797 20.0023 13.063 19.9551C12.9463 19.908 12.8402 19.8378 12.7512 19.7488C12.6622 19.6597 12.592 19.5537 12.5448 19.437C12.4977 19.3202 12.4745 19.1952 12.4768 19.0693C12.479 18.9434 12.5065 18.8193 12.5578 18.7043C12.609 18.5893 12.6829 18.4858 12.775 18.4L14.925 16.25L12.775 14.1C12.5994 13.9242 12.5008 13.6859 12.5008 13.4375C12.5008 13.189 12.5994 12.9507 12.775 12.775Z" fill="#0043FF"/>
</g>
<defs>
<clipPath id="clip0_49_4538">
<rect width="20" height="20" fill="white"/>
</clipPath>
</defs>
</svg>
