<svg width="25" height="25" viewBox="0 0 25 25" fill="none" xmlns="http://www.w3.org/2000/svg">
<g id="material-symbols:avg-time-outline-sharp">
<path id="Vector" d="M12.5 22.9166C11.2153 22.9166 10.0042 22.6691 8.86667 22.1739C7.72917 21.6788 6.73542 21.0062 5.88542 20.1562C5.03472 19.3055 4.36181 18.3114 3.86667 17.1739C3.37153 16.0364 3.12431 14.8257 3.125 13.5416H5.20833C5.20833 15.5555 5.92014 17.2743 7.34375 18.6979C8.76736 20.1215 10.4861 20.8333 12.5 20.8333C14.5139 20.8333 16.2326 20.1215 17.6563 18.6979C19.0799 17.2743 19.7917 15.5555 19.7917 13.5416H21.875C21.875 14.8263 21.6274 16.0375 21.1323 17.175C20.6372 18.3125 19.9646 19.3062 19.1146 20.1562C18.2639 21.0069 17.2698 21.6798 16.1323 22.175C14.9948 22.6701 13.784 22.9173 12.5 22.9166ZM3.125 13.5416C3.125 12.2569 3.37257 11.0458 3.86771 9.90829C4.36285 8.77079 5.03542 7.77704 5.88542 6.92704C6.73611 6.07635 7.73021 5.40343 8.86771 4.90829C10.0052 4.41315 11.216 4.16593 12.5 4.16663C13.5764 4.16663 14.6094 4.34024 15.599 4.68746C16.5885 5.03468 17.5174 5.53815 18.3854 6.19788L19.8438 4.73954L21.3021 6.19788L19.8438 7.65621C20.5035 8.52426 21.0069 9.45308 21.3542 10.4427C21.7014 11.4323 21.875 12.4652 21.875 13.5416H19.7917C19.7917 11.5277 19.0799 9.80899 17.6563 8.38538C16.2326 6.96176 14.5139 6.24996 12.5 6.24996C10.4861 6.24996 8.76736 6.96176 7.34375 8.38538C5.92014 9.80899 5.20833 11.5277 5.20833 13.5416H3.125ZM9.375 3.12496V1.04163H15.625V3.12496H9.375ZM12.5 6.24996C10.6597 6.24996 9.0625 6.84892 7.70833 8.04683C6.35417 9.24475 5.54688 10.7291 5.28646 12.5H8.98438L10.3385 15L14.5833 7.55204L17.2917 12.5H19.7135C19.4531 10.7291 18.6458 9.24475 17.2917 8.04683C15.9375 6.84892 14.3403 6.24996 12.5 6.24996ZM12.5 20.8333C14.3403 20.8333 15.9375 20.2343 17.2917 19.0364C18.6458 17.8385 19.4531 16.3541 19.7135 14.5833H16.0156L14.6615 12.0833L10.4167 19.5312L7.70833 14.5833H5.28646C5.54688 16.3541 6.35417 17.8385 7.70833 19.0364C9.0625 20.2343 10.6597 20.8333 12.5 20.8333ZM12.5 20.8333C10.4861 20.8333 8.76736 20.1215 7.34375 18.6979C5.92014 17.2743 5.20833 15.5555 5.20833 13.5416C5.20833 11.5277 5.92014 9.80899 7.34375 8.38538C8.76736 6.96176 10.4861 6.24996 12.5 6.24996C14.5139 6.24996 16.2326 6.96176 17.6563 8.38538C19.0799 9.80899 19.7917 11.5277 19.7917 13.5416C19.7917 15.5555 19.0799 17.2743 17.6563 18.6979C16.2326 20.1215 14.5139 20.8333 12.5 20.8333Z" fill="#0043FF"/>
</g>
</svg>
