<svg width="16" height="17" viewBox="0 0 16 17" fill="none" xmlns="http://www.w3.org/2000/svg">
<path id="Vector" d="M0.230171 5.76921C0.574991 4.70372 1.14157 3.72334 1.89262 2.89261C1.95473 2.82398 2.03583 2.77535 2.12563 2.7529C2.21542 2.73045 2.30987 2.73519 2.39696 2.76652L4.1883 3.40722C4.31583 3.45276 4.45173 3.47002 4.58659 3.45781C4.72145 3.4456 4.85205 3.40422 4.96932 3.33652C5.08659 3.26882 5.18774 3.17643 5.26576 3.06575C5.34378 2.95507 5.39679 2.82875 5.42113 2.69554L5.76296 0.822014C5.77947 0.730812 5.82275 0.646585 5.88728 0.580057C5.95181 0.513529 6.03468 0.467708 6.12534 0.448429C7.21951 0.215432 8.35048 0.215432 9.44464 0.448429C9.5353 0.467708 9.61817 0.513529 9.6827 0.580057C9.74724 0.646585 9.79051 0.730812 9.80702 0.822014L10.1489 2.69554C10.1732 2.82875 10.2262 2.95507 10.3042 3.06575C10.3822 3.17643 10.4834 3.26882 10.6007 3.33652C10.7179 3.40422 10.8485 3.4456 10.9834 3.45781C11.1183 3.47002 11.2542 3.45276 11.3817 3.40722L13.174 2.76652C13.2611 2.7353 13.3556 2.73071 13.4454 2.75332C13.5352 2.77594 13.6163 2.82475 13.6783 2.89354C14.4292 3.724 14.9958 4.70405 15.3407 5.76921C15.3691 5.85729 15.3707 5.9518 15.3452 6.04076C15.3198 6.12972 15.2685 6.20912 15.1979 6.26888L13.7455 7.50171C13.6424 7.58939 13.5595 7.69845 13.5027 7.82134C13.4458 7.94422 13.4164 8.078 13.4164 8.21339C13.4164 8.34878 13.4458 8.48256 13.5027 8.60545C13.5595 8.72833 13.6424 8.83739 13.7455 8.92507L15.1979 10.1579C15.2683 10.2178 15.3194 10.2972 15.3447 10.3862C15.37 10.4751 15.3683 10.5696 15.3398 10.6576C14.995 11.7231 14.4284 12.7034 13.6774 13.5342C13.6153 13.6028 13.5342 13.6514 13.4444 13.6739C13.3546 13.6963 13.2601 13.6916 13.173 13.6603L11.3817 13.0196C11.2542 12.974 11.1183 12.9568 10.9834 12.969C10.8485 12.9812 10.7179 13.0226 10.6007 13.0903C10.4834 13.158 10.3822 13.2504 10.3042 13.361C10.2262 13.4717 10.1732 13.598 10.1489 13.7312L9.80702 15.6057C9.79034 15.6967 9.74699 15.7808 9.68247 15.8471C9.61795 15.9135 9.53517 15.9591 9.44464 15.9784C8.35049 16.2115 7.2195 16.2115 6.12534 15.9784C6.03468 15.9591 5.95181 15.9133 5.88728 15.8467C5.82275 15.7802 5.77947 15.696 5.76296 15.6048L5.42113 13.7312C5.39679 13.598 5.34378 13.4717 5.26576 13.361C5.18774 13.2504 5.08659 13.158 4.96932 13.0903C4.85205 13.0226 4.72145 12.9812 4.58659 12.969C4.45173 12.9568 4.31583 12.974 4.1883 13.0196L2.39696 13.6603C2.30978 13.6915 2.21528 13.6961 2.12547 13.6735C2.03567 13.6508 1.95462 13.602 1.89262 13.5332C1.14166 12.7028 0.575085 11.7227 0.230171 10.6576C0.201701 10.5696 0.199994 10.4751 0.225267 10.3862C0.25054 10.2972 0.301656 10.2178 0.372134 10.1579L1.82445 8.92507C1.92761 8.83739 2.01049 8.72833 2.06732 8.60545C2.12416 8.48256 2.15359 8.34878 2.15359 8.21339C2.15359 8.078 2.12416 7.94422 2.06732 7.82134C2.01049 7.69845 1.92761 7.58939 1.82445 7.50171L0.372134 6.26888C0.301656 6.20901 0.25054 6.12956 0.225267 6.04061C0.199994 5.95165 0.201701 5.8572 0.230171 5.76921ZM5.918 8.21339C5.918 8.7088 6.1148 9.18391 6.4651 9.53421C6.81541 9.88452 7.29052 10.0813 7.78593 10.0813C8.28133 10.0813 8.75644 9.88452 9.10675 9.53421C9.45705 9.18391 9.65385 8.7088 9.65385 8.21339C9.65385 7.71799 9.45705 7.24287 9.10675 6.89257C8.75644 6.54227 8.28133 6.34547 7.78593 6.34547C7.29052 6.34547 6.81541 6.54227 6.4651 6.89257C6.1148 7.24287 5.918 7.71799 5.918 8.21339Z" fill="white"/>
</svg>
