<svg width="20" height="20" viewBox="0 0 20 20" fill="none" xmlns="http://www.w3.org/2000/svg">
<g id="fluent-mdl2:date-time-12" clip-path="url(#clip0_49_4540)">
<path id="Vector" d="M16.6699 8.89648C17.1777 9.13737 17.6367 9.4401 18.0469 9.80469C18.457 10.1693 18.8086 10.5827 19.1016 11.0449C19.3945 11.5072 19.6159 12.002 19.7656 12.5293C19.9154 13.0566 19.9935 13.6035 20 14.1699C20 14.9707 19.847 15.7259 19.541 16.4355C19.235 17.1452 18.8184 17.7637 18.291 18.291C17.7637 18.8184 17.1452 19.235 16.4355 19.541C15.7259 19.847 14.9707 20 14.1699 20C13.6035 20 13.0566 19.9219 12.5293 19.7656C12.002 19.6094 11.5104 19.388 11.0547 19.1016C10.599 18.8151 10.1855 18.4668 9.81445 18.0566C9.44336 17.6465 9.13737 17.1842 8.89648 16.6699H0V1.66992H3.33008V0H5V1.66992H11.6699V0H13.3301V1.66992H16.6699V8.89648ZM1.66992 5H15V3.33008H1.66992V5ZM8.38867 15C8.34961 14.7266 8.33008 14.4499 8.33008 14.1699C8.33008 13.3626 8.48307 12.6042 8.78906 11.8945C9.09505 11.1849 9.51172 10.5664 10.0391 10.0391C10.5664 9.51172 11.1849 9.09505 11.8945 8.78906C12.6042 8.48307 13.3626 8.33008 14.1699 8.33008C14.4499 8.33008 14.7266 8.34961 15 8.38867V6.66992H1.66992V15H8.38867ZM14.1699 18.3301C14.7428 18.3301 15.2799 18.2227 15.7812 18.0078C16.2826 17.793 16.7253 17.4935 17.1094 17.1094C17.4935 16.7253 17.7897 16.2858 17.998 15.791C18.2064 15.2962 18.3171 14.7559 18.3301 14.1699C18.3301 13.597 18.2227 13.0566 18.0078 12.5488C17.793 12.041 17.4967 11.5983 17.1191 11.2207C16.7415 10.8431 16.2988 10.5469 15.791 10.332C15.2832 10.1172 14.7428 10.0065 14.1699 10C13.5905 10 13.0501 10.1074 12.5488 10.3223C12.0475 10.5371 11.6048 10.8366 11.2207 11.2207C10.8366 11.6048 10.5404 12.0475 10.332 12.5488C10.1237 13.0501 10.013 13.5905 10 14.1699C10 14.7493 10.1074 15.2897 10.3223 15.791C10.5371 16.2923 10.8366 16.7318 11.2207 17.1094C11.6048 17.487 12.0475 17.7832 12.5488 17.998C13.0501 18.2129 13.5905 18.3236 14.1699 18.3301ZM15 13.3301H16.6699V15H13.3301V11.6699H15V13.3301Z" fill="#0043FF"/>
</g>
<defs>
<clipPath id="clip0_49_4540">
<rect width="20" height="20" fill="white"/>
</clipPath>
</defs>
</svg>
