<svg width="20" height="20" viewBox="0 0 20 20" fill="none" xmlns="http://www.w3.org/2000/svg">
<path d="M17.0564 6.23195C16.369 5.47173 15.2206 5.09162 13.5545 5.09162H13.3604V5.05927C13.3604 3.70057 13.3604 2.01837 10.3195 2.01837H9.09025C6.04935 2.01837 6.04935 3.70866 6.04935 5.05927V5.0997H5.85525C4.18114 5.0997 3.04081 5.47982 2.35337 6.24004C1.55271 7.12966 1.57697 8.32661 1.65785 9.14345L1.66594 9.20006L1.72493 9.81951C1.73878 9.96487 1.81715 10.0963 1.93943 10.176C2.13552 10.304 2.43612 10.4969 2.62026 10.5992C2.73348 10.672 2.8548 10.7367 2.97611 10.8014C4.35907 11.5616 5.87952 12.0711 7.42423 12.3218C7.49701 13.0821 7.8286 13.9717 9.59976 13.9717C11.3709 13.9717 11.7187 13.0901 11.7753 12.3057C13.4251 12.0388 15.0184 11.4646 16.458 10.6235C16.5065 10.5992 16.5388 10.5749 16.5793 10.5507C16.89 10.375 17.2121 10.1599 17.5077 9.94766C17.6175 9.86878 17.6877 9.74637 17.7026 9.61195L17.7115 9.53165L17.7519 9.15153C17.76 9.10301 17.76 9.06257 17.7681 9.00596C17.8328 8.18912 17.8166 7.07305 17.0564 6.23195ZM10.5864 11.7719C10.5864 12.6292 10.5864 12.7586 9.59167 12.7586C8.59691 12.7586 8.59691 12.6049 8.59691 11.78V10.7609H10.5864L10.5864 11.7719ZM7.20586 5.09162V5.05927C7.20586 3.68439 7.20586 3.17488 9.09025 3.17488H10.3195C12.2039 3.17488 12.2039 3.69248 12.2039 5.05927V5.0997L7.20586 5.0997V5.09162Z" fill="#151515"/>
<path d="M16.7508 11.7565C17.0944 11.5941 17.4896 11.8664 17.4552 12.2449L17.1781 15.298C17.0082 16.9155 16.345 18.5654 12.7865 18.5654H6.62388C3.06539 18.5654 2.40221 16.9155 2.23237 15.3061L1.96965 12.4162C1.93564 12.0421 2.32221 11.7703 2.66483 11.9243C3.59574 12.3426 5.16018 13.0155 6.1656 13.2863C6.32477 13.3292 6.45399 13.4437 6.5262 13.5919C7.02524 14.6161 8.08229 15.1606 9.60007 15.1606C11.1029 15.1606 12.1729 14.5951 12.6738 13.5678C12.7461 13.4196 12.8753 13.3051 13.0345 13.262C14.1038 12.9723 15.7743 12.2179 16.7508 11.7565Z" fill="#151515"/>
</svg>
