<svg width="21" height="20" viewBox="0 0 21 20" fill="none" xmlns="http://www.w3.org/2000/svg">
<path d="M14.3664 2.91997V1.65832C14.3664 1.32673 14.0914 1.05176 13.7598 1.05176C13.4282 1.05176 13.1532 1.32673 13.1532 1.65832V2.87144L7.89636 2.87144V1.65832C7.89636 1.32673 7.62139 1.05176 7.2898 1.05176C6.95822 1.05176 6.68324 1.32673 6.68324 1.65832V2.91997C4.49962 3.12215 3.44016 4.42424 3.27841 6.35715C3.26223 6.59169 3.45633 6.78579 3.68278 6.78579L17.3668 6.78579C17.6013 6.78579 17.7954 6.5836 17.7712 6.35715C17.6094 4.42424 16.55 3.12215 14.3664 2.91997Z" fill="#151515"/>
<path d="M16.9949 7.99893L4.05496 7.99893C3.61015 7.99893 3.24622 8.36287 3.24622 8.80768L3.24622 13.7896C3.24622 16.2158 4.45934 17.8333 7.28996 17.8333H13.7599C16.5906 17.8333 17.8037 16.2158 17.8037 13.7896V8.80768C17.8037 8.36287 17.4398 7.99893 16.9949 7.99893ZM8.26855 14.7682C8.22811 14.8005 8.18767 14.8409 8.14723 14.8652C8.09871 14.8976 8.05018 14.9218 8.00166 14.938C7.95313 14.9623 7.90461 14.9784 7.85608 14.9865C7.79947 14.9946 7.75095 15.0027 7.69433 15.0027C7.5892 15.0027 7.48406 14.9784 7.38701 14.938C7.28187 14.8976 7.201 14.8409 7.12012 14.7682C6.97455 14.6145 6.88558 14.4042 6.88558 14.1939C6.88558 13.9837 6.97455 13.7734 7.12012 13.6197C7.201 13.5469 7.28187 13.4903 7.38701 13.4499C7.53258 13.3852 7.69433 13.369 7.85608 13.4014C7.90461 13.4095 7.95313 13.4256 8.00166 13.4499C8.05018 13.4661 8.09871 13.4903 8.14723 13.5227C8.18767 13.555 8.22811 13.5874 8.26855 13.6197C8.41412 13.7734 8.50308 13.9837 8.50308 14.1939C8.50308 14.4042 8.41412 14.6145 8.26855 14.7682ZM8.26855 11.9375C8.11488 12.0831 7.90461 12.1721 7.69433 12.1721C7.48406 12.1721 7.27378 12.0831 7.12012 11.9375C6.97455 11.7839 6.88558 11.5736 6.88558 11.3633C6.88558 11.1531 6.97455 10.9428 7.12012 10.7891C7.34657 10.5627 7.70242 10.4899 8.00166 10.6193C8.1068 10.6597 8.19576 10.7163 8.26855 10.7891C8.41412 10.9428 8.50308 11.1531 8.50308 11.3633C8.50308 11.5736 8.41412 11.7839 8.26855 11.9375ZM11.0992 14.7682C10.9455 14.9137 10.7352 15.0027 10.525 15.0027C10.3147 15.0027 10.1044 14.9137 9.95074 14.7682C9.80517 14.6145 9.71621 14.4042 9.71621 14.1939C9.71621 13.9837 9.80517 13.7734 9.95074 13.6197C10.25 13.3205 10.7999 13.3205 11.0992 13.6197C11.2447 13.7734 11.3337 13.9837 11.3337 14.1939C11.3337 14.4042 11.2447 14.6145 11.0992 14.7682ZM11.0992 11.9375C11.0587 11.9699 11.0183 12.0022 10.9779 12.0346C10.9293 12.0669 10.8808 12.0912 10.8323 12.1074C10.7838 12.1316 10.7352 12.1478 10.6867 12.1559C10.6301 12.164 10.5816 12.1721 10.525 12.1721C10.3147 12.1721 10.1044 12.0831 9.95074 11.9375C9.80517 11.7839 9.71621 11.5736 9.71621 11.3633C9.71621 11.1531 9.80517 10.9428 9.95074 10.7891C10.0235 10.7163 10.1125 10.6597 10.2176 10.6193C10.5169 10.4899 10.8727 10.5627 11.0992 10.7891C11.2447 10.9428 11.3337 11.1531 11.3337 11.3633C11.3337 11.5736 11.2447 11.7839 11.0992 11.9375ZM13.9298 14.7682C13.7761 14.9137 13.5658 15.0027 13.3556 15.0027C13.1453 15.0027 12.935 14.9137 12.7814 14.7682C12.6358 14.6145 12.5468 14.4042 12.5468 14.1939C12.5468 13.9837 12.6358 13.7734 12.7814 13.6197C13.0806 13.3205 13.6305 13.3205 13.9298 13.6197C14.0754 13.7734 14.1643 13.9837 14.1643 14.1939C14.1643 14.4042 14.0754 14.6145 13.9298 14.7682ZM13.9298 11.9375C13.8893 11.9699 13.8489 12.0022 13.8085 12.0346C13.7599 12.0669 13.7114 12.0912 13.6629 12.1074C13.6144 12.1316 13.5658 12.1478 13.5173 12.1559C13.4607 12.164 13.4041 12.1721 13.3556 12.1721C13.1453 12.1721 12.935 12.0831 12.7814 11.9375C12.6358 11.7839 12.5468 11.5736 12.5468 11.3633C12.5468 11.1531 12.6358 10.9428 12.7814 10.7891C12.8622 10.7163 12.9431 10.6597 13.0482 10.6193C13.1938 10.5546 13.3556 10.5384 13.5173 10.5708C13.5658 10.5788 13.6144 10.595 13.6629 10.6193C13.7114 10.6355 13.7599 10.6597 13.8085 10.6921C13.8489 10.7244 13.8893 10.7568 13.9298 10.7891C14.0754 10.9428 14.1643 11.1531 14.1643 11.3633C14.1643 11.5736 14.0754 11.7839 13.9298 11.9375Z" fill="#151515"/>
</svg>
