<svg width="21" height="20" viewBox="0 0 21 20" fill="none" xmlns="http://www.w3.org/2000/svg">
<path d="M6.6751 2.07745L5.13848 2.07745C3.36732 2.07745 2.43726 3.00751 2.43726 4.77059L2.43726 6.30721C2.43726 8.07028 3.36732 9.00034 5.13039 9.00034H6.66701C8.43008 9.00034 9.36015 8.07028 9.36015 6.30721V4.77059C9.36823 3.00751 8.43817 2.07745 6.6751 2.07745Z" fill="#151515"/>
<path d="M15.9195 2.07745L14.3828 2.07745C12.6198 2.07745 11.6897 3.00751 11.6897 4.77059V6.30721C11.6897 8.07028 12.6198 9.00034 14.3828 9.00034H15.9195C17.6825 9.00034 18.6126 8.07028 18.6126 6.30721V4.77059C18.6126 3.00751 17.6825 2.07745 15.9195 2.07745Z" fill="#151515"/>
<path d="M15.9195 11.3215H14.3828C12.6198 11.3215 11.6897 12.2515 11.6897 14.0146V15.5512C11.6897 17.3143 12.6198 18.2444 14.3828 18.2444H15.9195C17.6825 18.2444 18.6126 17.3143 18.6126 15.5512V14.0146C18.6126 12.2515 17.6825 11.3215 15.9195 11.3215Z" fill="#151515"/>
<path d="M6.6751 11.3215H5.13848C3.36732 11.3215 2.43726 12.2515 2.43726 14.0146L2.43726 15.5512C2.43726 17.3224 3.36732 18.2524 5.13039 18.2524H6.66701C8.43008 18.2524 9.36015 17.3224 9.36015 15.5593V14.0227C9.36823 12.2515 8.43817 11.3215 6.6751 11.3215Z" fill="#151515"/>
</svg>
