<svg width="20" height="20" viewBox="0 0 20 20" fill="none" xmlns="http://www.w3.org/2000/svg">
<path d="M12.7782 2.31219C12.4466 1.9806 11.8724 2.20705 11.8724 2.66804V5.49057C11.8724 6.67135 12.8753 7.64993 14.0965 7.64993C14.8648 7.65802 15.9324 7.65802 16.8462 7.65802C17.3072 7.65802 17.5499 7.11616 17.2264 6.79266C16.0618 5.61997 13.9752 3.50914 12.7782 2.31219Z" fill="#151515"/>
<path d="M16.5794 8.76605H14.2422C12.3254 8.76605 10.7645 7.20516 10.7645 5.28843V2.95114C10.7645 2.50633 10.4006 2.1424 9.9558 2.1424L6.5267 2.1424C4.03576 2.1424 2.02197 3.75989 2.02197 6.64713L2.02197 13.8126C2.02197 16.6999 4.03576 18.3174 6.5267 18.3174H12.8835C15.3744 18.3174 17.3882 16.6999 17.3882 13.8126V9.5748C17.3882 9.12998 17.0243 8.76605 16.5794 8.76605ZM9.30071 14.8802H6.06572C5.73413 14.8802 5.45915 14.6052 5.45915 14.2736C5.45915 13.942 5.73413 13.6671 6.06572 13.6671H9.30071C9.6323 13.6671 9.90727 13.942 9.90727 14.2736C9.90727 14.6052 9.6323 14.8802 9.30071 14.8802ZM10.9182 11.6452L6.06572 11.6452C5.73413 11.6452 5.45915 11.3702 5.45915 11.0386C5.45915 10.707 5.73413 10.4321 6.06572 10.4321L10.9182 10.4321C11.2498 10.4321 11.5248 10.707 11.5248 11.0386C11.5248 11.3702 11.2498 11.6452 10.9182 11.6452Z" fill="#151515"/>
</svg>
