<svg width="21" height="20" viewBox="0 0 21 20" fill="none" xmlns="http://www.w3.org/2000/svg">
<path d="M14.5685 1.72037L6.481 1.72037C4.24885 1.72037 2.43726 3.52388 2.43726 5.74794L2.43726 10.5843L2.43726 11.393C2.43726 13.6171 4.24885 15.4206 6.481 15.4206H7.69412C7.91248 15.4206 8.20363 15.5661 8.34112 15.7441L9.55424 17.3535C10.088 18.0652 10.9615 18.0652 11.4952 17.3535L12.7084 15.7441C12.862 15.5419 13.1047 15.4206 13.3554 15.4206H14.5685C16.8006 15.4206 18.6122 13.6171 18.6122 11.393V5.74794C18.6122 3.52388 16.8006 1.72037 14.5685 1.72037ZM11.3335 11.2232L6.481 11.2232C6.14941 11.2232 5.87444 10.9482 5.87444 10.6166C5.87444 10.285 6.14941 10.01 6.481 10.01L11.3335 10.01C11.6651 10.01 11.9401 10.285 11.9401 10.6166C11.9401 10.9482 11.6651 11.2232 11.3335 11.2232ZM14.5685 7.17942L6.481 7.17942C6.14941 7.17942 5.87444 6.90445 5.87444 6.57286C5.87444 6.24127 6.14941 5.9663 6.481 5.9663L14.5685 5.9663C14.9001 5.9663 15.175 6.24127 15.175 6.57286C15.175 6.90445 14.9001 7.17942 14.5685 7.17942Z" fill="#151515"/>
</svg>
