<svg width="20" height="20" viewBox="0 0 20 20" fill="none" xmlns="http://www.w3.org/2000/svg">
<path d="M7.27857 2.14236C5.15965 2.14236 3.43701 3.865 3.43701 5.98392C3.43701 8.0624 5.0626 9.7446 7.18152 9.81739C7.24622 9.8093 7.31092 9.8093 7.35944 9.81739C7.37562 9.81739 7.3837 9.81739 7.39988 9.81739C7.40797 9.81739 7.40797 9.81739 7.41605 9.81739C9.48645 9.7446 11.112 8.0624 11.1201 5.98392C11.1201 3.865 9.39749 2.14236 7.27857 2.14236Z" fill="#151515"/>
<path d="M11.3871 11.9686C9.13071 10.4644 5.4509 10.4644 3.17832 11.9686C2.15121 12.6561 1.58508 13.5861 1.58508 14.5809C1.58508 15.5756 2.15121 16.4976 3.17023 17.177C4.30248 17.9372 5.79058 18.3173 7.27867 18.3173C8.76677 18.3173 10.2549 17.9372 11.3871 17.177C12.4061 16.4895 12.9723 15.5676 12.9723 14.5647C12.9642 13.57 12.4061 12.648 11.3871 11.9686Z" fill="#151515"/>
<path d="M16.1668 6.46104C16.2962 8.03001 15.1801 9.40488 13.6354 9.59089C13.6273 9.59089 13.6273 9.59089 13.6193 9.59089H13.595C13.5465 9.59089 13.4979 9.59089 13.4575 9.60707C12.673 9.6475 11.9532 9.39679 11.4114 8.93581C12.2444 8.19176 12.7215 7.07568 12.6245 5.86256C12.5679 5.20747 12.3414 4.609 12.0018 4.09949C12.3091 3.94583 12.6649 3.84878 13.0289 3.81643C14.614 3.67894 16.0293 4.85971 16.1668 6.46104Z" fill="#151515"/>
<path d="M17.7842 13.942C17.7195 14.7264 17.2181 15.4058 16.377 15.8668C15.5682 16.3116 14.5492 16.5219 13.5383 16.4976C14.1206 15.9719 14.4602 15.3168 14.5249 14.6213C14.6058 13.6185 14.1287 12.656 13.1743 11.8877C12.6325 11.4591 12.0016 11.1194 11.3142 10.8687C13.1015 10.3511 15.3499 10.6989 16.7328 11.8149C17.4769 12.4134 17.857 13.1656 17.7842 13.942Z" fill="#151515"/>
</svg>
