<svg width="21" height="20" viewBox="0 0 21 20" fill="none" xmlns="http://www.w3.org/2000/svg">
<g id="vuesax/outline/search-normal">
<g id="search-normal">
<path id="Vector" d="M10.0341 17.5873C5.46463 17.5873 1.74438 13.867 1.74438 9.29761C1.74438 4.72818 5.46463 1.00793 10.0341 1.00793C14.6035 1.00793 18.3237 4.72818 18.3237 9.29761C18.3237 13.867 14.6035 17.5873 10.0341 17.5873ZM10.0341 2.22106C6.1278 2.22106 2.95751 5.39944 2.95751 9.29761C2.95751 13.1958 6.1278 16.3742 10.0341 16.3742C13.9403 16.3742 17.1106 13.1958 17.1106 9.29761C17.1106 5.39944 13.9403 2.22106 10.0341 2.22106Z" fill="#898989"/>
<path id="Vector_2" d="M18.5257 18.396C18.3721 18.396 18.2184 18.3394 18.0971 18.2181L16.4796 16.6006C16.2451 16.3661 16.2451 15.9779 16.4796 15.7433C16.7142 15.5088 17.1024 15.5088 17.3369 15.7433L18.9544 17.3608C19.1889 17.5954 19.1889 17.9836 18.9544 18.2181C18.8331 18.3394 18.6794 18.396 18.5257 18.396Z" fill="#898989"/>
</g>
</g>
</svg>
